{
  "asset": {
    "version": "2.0",
    "generator": "codex-dog-placeholder"
  },
  "scene": 0,
  "scenes": [
    {
      "nodes": [
        0
      ]
    }
  ],
  "nodes": [
    {
      "mesh": 0,
      "name": "DogNode"
    }
  ],
  "meshes": [
    {
      "name": "DogMesh",
      "primitives": [
        {
          "attributes": {
            "POSITION": 0
          },
          "indices": 1,
          "material": 0
        }
      ]
    }
  ],
  "materials": [
    {
      "name": "DogBrown",
      "pbrMetallicRoughness": {
        "baseColorFactor": [
          0.63,
          0.45,
          0.28,
          1
        ],
        "metallicFactor": 0,
        "roughnessFactor": 0.9
      }
    }
  ],
  "buffers": [
    {
      "byteLength": 1680,
      "uri": "dog.bin"
    }
  ],
  "bufferViews": [
    {
      "buffer": 0,
      "byteOffset": 0,
      "byteLength": 960,
      "target": 34962
    },
    {
      "buffer": 0,
      "byteOffset": 960,
      "byteLength": 720,
      "target": 34963
    }
  ],
  "accessors": [
    {
      "bufferView": 0,
      "byteOffset": 0,
      "componentType": 5126,
      "count": 80,
      "type": "VEC3",
      "min": [
        -0.94,
        -0.6,
        -0.25
      ],
      "max": [
        1.2950000000000002,
        0.5700000000000001,
        0.25
      ]
    },
    {
      "bufferView": 1,
      "byteOffset": 0,
      "componentType": 5123,
      "count": 360,
      "type": "SCALAR",
      "min": [
        0
      ],
      "max": [
        79
      ]
    }
  ]
}